<?xml version="1.0" encoding="utf-8"?>
<!-- Generator: Adobe Illustrator 25.1.0, SVG Export Plug-In . SVG Version: 6.00 Build 0)  -->
<svg version="1.1" id="Layer_1" xmlns="http://www.w3.org/2000/svg" xmlns:xlink="http://www.w3.org/1999/xlink" x="0px" y="0px"
	 viewBox="0 0 89.8 90.1" style="enable-background:new 0 0 89.8 90.1;" xml:space="preserve">
<style type="text/css">
	.st0{fill-rule:evenodd;clip-rule:evenodd;fill:#FFFFFF;}
	.st1{fill:#FFFFFF;}
</style>
<g>
	<path class="st0" d="M84.2,6.1H4.9v37l3-7.1h3.9l2.3,5.5V36h5.6l1.9,4.8l2-4.8h5.5l0,0h8.4l0,0h6.3h0.6h0.5h0.5l0.5,0.1l0.4,0.1
		l0.4,0.1l0.4,0.1l0.4,0.2l0.2,0.1l0.2,0.1l0.2,0.1l0.1,0.1v-1.1h4.5v1.4l0.1-0.1L53,37l0.3-0.2l0.3-0.2l0.3-0.2l0.3-0.1l0.3-0.1
		l0.3-0.1l0.3-0.1l0.3-0.1h0.3h0.4h0.4h0.4h4.2h0.2H65l2.6,6.2v-6.2h4.5l1.6,2.8v-2.8h4.4v11.4h-4.4L72,44.4v2.9h-2.1h-2.2h-2.8
		l-0.9-2h-1.8l-0.9,2h-4.4h-0.2h-0.2h-0.2h-0.2h-0.2h-0.2h-0.2h-0.2l-0.5-0.1L54.3,47l-0.5-0.2l-0.4-0.3l-0.5-0.4L52.8,46v1.4h-2.6
		h-1.9h-3.4l-0.3-1v-0.2V46v-0.2v-0.2v-0.2v-0.2V45v-0.2v-0.1v-0.1v-0.1v-0.1v-0.1l0,0l0,0l0,0l0,0l0,0l0,0l0,0l0,0l0,0l0,0h-0.1
		h-0.1h-0.1h-0.1H44h-0.2h-0.2h-0.2h-0.5v3.4h-3.2h-1.6h-8.4h-0.8h-4.5V46l-0.7,1.7h-4.1l-0.5-1.3v1.3h-2.3h-2.5h-2.5l-0.9-2H9.1
		l-0.9,2H4.9v38h79.3V62.5l-0.1,0.1l-0.3,0.2L83.5,63l-0.3,0.2l-0.4,0.1l-0.4,0.1h-0.2H82h-0.2h-0.2h-0.2h-0.2H81h-0.3h-5.6v-0.8
		L75,62.7l-0.3,0.2l-0.3,0.2L74,63.2l-0.4,0.1h-0.2h-0.2H73h-0.2h-0.2h-0.2h-0.2H72h-4.5h-1.1h-7.2h-2h-3l-0.3-1v-0.2v-0.2v-0.2
		v-0.2v-0.2v-0.2v-0.2v-0.2v-0.1v-0.1v-0.1v-0.1v-0.1l0,0l0,0l0,0l0,0l0,0l0,0l0,0l0,0l0,0l0,0l0,0h-0.1h-0.1h-0.1h-0.1h-0.2h-0.2
		h-0.2h-0.3v3.4h-4.5v-4.4L48,59.3l-0.2,0.2l-0.2,0.1l-0.2,0.1l-0.2,0.1L47,59.9L46.8,60l-0.2,0.1l-0.2,0.1l-0.2,0.1L46,60.4h-0.2
		h-0.2h-0.2h-0.2H45h-0.2h-0.2h-0.2h-2.1v3.1h-6l-1.7-2.2l-1.7,2.2H21.4V52.1h5.7l0,0h6l1.5,2.1l1.6-2.1h7.6h0.3h0.3h0.3H45h0.3h0.3
		h0.2l0.3,0.1l0.4,0.1l0.3,0.2l0.3,0.2l0.3,0.2l0.3,0.2l0.2,0.2v-1.4h5.8h0.5h0.5h0.5l0.4,0.1l0.4,0.1l0.4,0.1l0.4,0.1l0.3,0.2
		l0.2,0.1l0.2,0.1l0,0v-0.9h10.1v0.8l0.2-0.2l0.3-0.2l0.3-0.2l0.4-0.1l0.4-0.1l0.4-0.1h0.1h0.1h0.1h0.2h0.2h0.2h0.2h0.2h5.5v0.8
		l0.2-0.2l0.3-0.2l0.3-0.2l0.4-0.1l0.4-0.1l0.4-0.1h0.2h0.1h0.1H79h0.2h0.2h0.2h0.2h4.9V6.1H84.2z M67.5,59.1h0.4l-0.3-0.2l-0.3-0.2
		l-0.2-0.2L67,58.4l-0.1-0.2L66.8,58l-0.1-0.2v1.1h0.9L67.5,59.1L67.5,59.1z M76.6,59L76.6,59l0.1,0.1L76.6,59L76.6,59z M30.5,58.4
		l0.7-0.9l-0.7-0.9V58.4L30.5,58.4z M59.4,40.1h-2.1h-0.2h-0.2h-0.2h-0.1h-0.1h-0.1l0,0l0,0l0,0l0,0v0.1v0.1v0.2v0.2V41v0.3v0.4V42
		v0.3l0.1,0.2l0.1,0.2v0.1l0,0l0,0l0,0h0.1h0.1h0.1h0.2h0.2h0.2h0.8L59.4,40.1L59.4,40.1z"/>
	<path class="st0" d="M22.3,42.2h2.1l-1.7,3.9h-2.4l-2.7-6.7v6.7h-2.2v-8.9h3.4l2.7,6.9L22.3,42.2L22.3,42.2z M25.6,42.2h2.2v3.9
		h-2.2V42.2L25.6,42.2z M30.1,42.2H37v0.2h-4.8v2h5.6v1.7h-7.7V42.2L30.1,42.2z M38.9,42.2h7.7c-0.1,0-0.2,0.1-0.3,0.1
		c0.4,0.1,0.7,0.2,0.9,0.4c0.2,0.1,0.4,0.3,0.6,0.6c0.1,0.2,0.2,0.4,0.3,0.6c0.1,0.2,0.1,0.5,0.1,0.9c0.1,0.6,0.1,1.1,0.3,1.3h-2.6
		c-0.1-0.2-0.2-0.6-0.2-1.3c-0.1-0.5-0.2-0.9-0.3-1.2c-0.2-0.3-0.4-0.5-0.7-0.6c-0.4-0.2-1-0.3-1.7-0.3h-1.8v3.4h-2.3V42.2
		L38.9,42.2z M49.6,42.2h1.9v3.9h-1.9V42.2L49.6,42.2z M52.7,42.2h2.2c0.1,0.9,0.3,1.6,0.8,1.9c0.4,0.3,0.9,0.4,1.7,0.4H59l1-2.3h2
		l-0.1,0.3h2.6l-0.1-0.3h2l1.7,3.9h-2.3L64.9,44h-3.5l-0.9,2.1h-0.4h-1.8h-1.4c-0.6,0-1.1,0-1.4-0.1c-1.1-0.2-1.9-0.8-2.4-1.8
		C52.9,43.6,52.7,43,52.7,42.2L52.7,42.2z M69,42.2h1.8v3.9H69V42.2L69,42.2z M72.4,42.2h1.9l0.9,1.7v-1.7H77v3.9h-2.4L72.4,42.2
		L72.4,42.2z M77,42.2h-1.8v-5H77V42.2L77,42.2z M74.2,42.2h-1.9l-1.5-2.6v2.6H69v-5h2.5L74.2,42.2L74.2,42.2z M66.3,42.2h-2
		l-1.2-2.8l-1.2,2.8h-2l2.1-5h2.2L66.3,42.2L66.3,42.2z M54.8,42.2h-2.2c0-0.2,0-0.3,0-0.5c0-1.2,0.2-2.2,0.7-2.9
		c0.3-0.5,0.8-0.9,1.4-1.2c0.6-0.2,1.3-0.4,2.2-0.4H60v1.6h-2.9c-0.9,0-1.5,0.2-1.9,0.7c-0.3,0.4-0.5,1-0.5,2
		C54.8,41.8,54.8,42,54.8,42.2L54.8,42.2z M51.5,42.2h-1.9v-5h1.9V42.2L51.5,42.2z M46.5,42.2h-7.6v-5H44c1.5,0,2.5,0.2,3,0.5
		c0.4,0.2,0.7,0.5,0.9,0.8c0.2,0.4,0.3,0.7,0.3,1.2c0,0.8-0.3,1.5-0.8,2C47.2,41.9,46.9,42,46.5,42.2L46.5,42.2z M37,42.2h-6.9v-5
		h7.6v1.7h-5.5v1.8H37L37,42.2L37,42.2z M27.8,42.2h-2.2v-2.7l-1.2,2.7h-2.1l2.1-5h3.4V42.2L27.8,42.2z M67.8,62v-1.6h3.9
		c0.6,0,1-0.1,1.3-0.2c0.3-0.2,0.5-0.5,0.5-0.8c0-0.4-0.2-0.7-0.5-0.9c-0.2-0.1-0.5-0.2-1-0.2h-1.6c-1,0-1.7-0.2-2.1-0.5
		c-0.3-0.2-0.5-0.5-0.6-0.9c-0.2-0.3-0.2-0.7-0.2-1.1c0-0.6,0.2-1.2,0.5-1.7s0.9-0.8,1.7-0.9c0.3,0,0.6,0,1.1,0h4.3v1.6h-3.8
		c-0.6,0-1,0-1.1,0.1c-0.4,0.1-0.6,0.4-0.6,0.9c0,0.4,0.2,0.7,0.5,0.9c0.2,0.1,0.6,0.1,1.1,0.1h1.4c0.7,0,1.2,0.1,1.6,0.2
		c0.6,0.2,1,0.6,1.3,1.1c0.2,0.4,0.3,0.9,0.3,1.4s-0.1,1-0.4,1.5c-0.3,0.6-0.8,1-1.5,1.1c-0.3,0.1-0.8,0.1-1.5,0.1h-4.6V62z
		 M58.5,53.1h7.6v1.7h-5.5v1.8h4.8v1.7h-4.8v2h5.6V62h-7.7L58.5,53.1L58.5,53.1z M23.3,53.1h6l0,0h2.8l2.1,2.9l2.3-2.9h2h0.7h4.2
		c0.9,0,1.5,0.1,1.9,0.2c0.6,0.2,1.2,0.6,1.5,1.2c0.3,0.5,0.4,1,0.4,1.5s-0.1,0.9-0.3,1.3c-0.2,0.4-0.4,0.7-0.8,1
		c-0.3,0.2-0.6,0.4-0.9,0.5c-0.3,0.1-0.8,0.1-1.4,0.1h-3.4V62H39h-0.7h-2l-2.4-3l-2.3,3h-1.9h-0.9h-5.9v-8.9H23.3z M29.9,53.8v1
		h-4.5v1.8h3.8v1.7h-3.8v2H30h0.5l2.3-2.8L29.9,53.8L29.9,53.8z M76.6,62v-1.6h3.9c0.6,0,1-0.1,1.3-0.2c0.3-0.2,0.5-0.5,0.5-0.8
		c0-0.4-0.2-0.7-0.5-0.9c-0.2-0.1-0.5-0.2-1-0.2h-1.6c-1,0-1.7-0.2-2.1-0.5c-0.3-0.2-0.5-0.5-0.6-0.9c-0.1-0.3-0.2-0.7-0.2-1.1
		c0-0.6,0.2-1.2,0.5-1.7s0.9-0.8,1.7-0.9c0.3,0,0.6,0,1.1,0h4.3v1.6h-4c-0.6,0-1,0-1.1,0.1c-0.4,0.1-0.6,0.4-0.6,0.9
		c0,0.4,0.2,0.7,0.5,0.9c0.2,0.1,0.6,0.1,1.1,0.1h1.4c0.7,0,1.2,0.1,1.6,0.2c0.6,0.2,1,0.6,1.3,1.1c0.2,0.4,0.3,0.9,0.3,1.4
		s-0.1,1-0.4,1.5c-0.3,0.6-0.8,1-1.5,1.1c-0.3,0.1-0.8,0.1-1.5,0.1h-4.4V62z M50.9,57.1h2.8c0.5,0,0.8-0.1,1-0.2
		c0.3-0.2,0.4-0.5,0.4-1s-0.2-0.9-0.7-1c-0.2-0.1-0.4-0.1-0.8-0.1h-2.7V57.1L50.9,57.1z M50.9,58.6V62h-2v-8.9h4.5
		c1.3,0,2.2,0.2,2.7,0.5c0.4,0.2,0.6,0.5,0.8,0.8c0.2,0.4,0.3,0.7,0.3,1.2c0,0.8-0.2,1.5-0.7,2c-0.3,0.3-0.6,0.5-1.1,0.6
		c0.4,0.1,0.6,0.2,0.8,0.4c0.2,0.1,0.4,0.3,0.5,0.6c0.1,0.2,0.2,0.4,0.2,0.6c0,0.2,0.1,0.5,0.1,0.9c0.1,0.6,0.1,1.1,0.2,1.3H55
		c-0.1-0.2-0.1-0.6-0.2-1.3c-0.1-0.5-0.2-0.9-0.3-1.2s-0.4-0.5-0.7-0.6c-0.4-0.2-0.9-0.3-1.6-0.3H50.9L50.9,58.6z M38.6,54l-2.9,3.5
		l2.9,3.6V54L38.6,54z M40.7,57.3h2.9c0.5,0,0.9-0.1,1.1-0.2c0.3-0.2,0.5-0.6,0.5-1.1c0-0.6-0.2-1-0.7-1.2c-0.2-0.1-0.4-0.1-0.8-0.1
		h-2.9v2.6H40.7z M9.8,39.4l-1.3,3.1h2.6L9.8,39.4L9.8,39.4z M4.9,46.1l3.8-8.9h2.2l3.8,8.9h-2.3L11.5,44H8l-0.9,2.1H4.9L4.9,46.1z
		 M41.1,41.2h3.1c0.5,0,0.9-0.1,1.1-0.2c0.3-0.2,0.5-0.5,0.5-1s-0.2-0.9-0.7-1c-0.2-0.1-0.5-0.1-0.9-0.1h-3.1L41.1,41.2L41.1,41.2z"
		/>
</g>
</svg>
