<?xml version="1.0" encoding="utf-8"?>
<!-- Generator: Adobe Illustrator 25.1.0, SVG Export Plug-In . SVG Version: 6.00 Build 0)  -->
<svg version="1.1" id="Layer_1" xmlns="http://www.w3.org/2000/svg" xmlns:xlink="http://www.w3.org/1999/xlink" x="0px" y="0px"
	 viewBox="0 0 360 360" style="enable-background:new 0 0 360 360;" xml:space="preserve">
<style type="text/css">
	.st0{fill-rule:evenodd;clip-rule:evenodd;fill:#FFFFFF;}
</style>
<g>
	<path class="st0" d="M219.3,141H140v37l3-7.1h3.9l2.3,5.5v-5.5h5.6l1.9,4.8l2-4.8h5.5v0h8.4v0h6.3l0.6,0l0.5,0l0.5,0l0.5,0.1
		l0.4,0.1l0.4,0.1l0.4,0.1l0.4,0.2l0.2,0.1l0.2,0.1l0.2,0.1l0.1,0.1v-1.1h4.5v1.4l0.1-0.1l0.2-0.2l0.3-0.2l0.3-0.2l0.3-0.2l0.3-0.1
		l0.3-0.1l0.3-0.1l0.3-0.1l0.3-0.1l0.3,0l0.4,0l0.4,0l0.4,0h4.2h0.2h3.7l2.6,6.2v-6.2h4.5l1.6,2.8v-2.8h4.4v11.4h-4.4l-1.7-2.9v2.9
		H205h-2.2h-2.8l-0.9-2h-1.8l-0.9,2H192h-0.2l-0.2,0l-0.2,0l-0.2,0l-0.2,0l-0.2,0l-0.2,0l-0.2,0l-0.5-0.1l-0.5-0.2l-0.5-0.2
		l-0.4-0.3L188,181l-0.1-0.1v1.4h-2.6h-1.9h-3.4l-0.3-1l0-0.2l0-0.2l0-0.2l0-0.2l0-0.2l0-0.2l0-0.2l0-0.2l0-0.1l0-0.1l0-0.1l0-0.1
		l0-0.1l0,0l0,0l0,0l0,0l0,0l0,0l0,0l0,0l0,0l0,0l-0.1,0l-0.1,0l-0.1,0l-0.1,0l-0.2,0l-0.2,0l-0.2,0l-0.2,0h-0.5v3.4h-3.2h-1.6h-8.4
		H164h-4.5v-1.7l-0.7,1.7h-4.1l-0.5-1.3v1.3h-2.3h-2.5h-2.5l-0.9-2h-1.8l-0.9,2H140v38h79.3v-23.2l-0.1,0.1l-0.3,0.2l-0.3,0.2
		l-0.3,0.2l-0.4,0.1l-0.4,0.1l-0.2,0l-0.2,0l-0.2,0l-0.2,0l-0.2,0l-0.2,0l-0.2,0l-0.3,0h-5.6v-0.8l-0.1,0.1l-0.3,0.2l-0.3,0.2
		l-0.4,0.1l-0.4,0.1l-0.2,0l-0.2,0l-0.2,0l-0.2,0l-0.2,0l-0.2,0l-0.2,0l-0.2,0h-4.5h-1.1h-7.2h-2h-3l-0.3-1l0-0.2l0-0.2l0-0.2l0-0.2
		l0-0.2l0-0.2l0-0.2l0-0.2l0-0.1l0-0.1l0-0.1l0-0.1l0-0.1l0,0l0,0l0,0l0,0l0,0l0,0l0,0l0,0l0,0l0,0l0,0l-0.1,0l-0.1,0l-0.1,0l-0.1,0
		l-0.2,0l-0.2,0l-0.2,0h-0.3v3.4h-4.5v-4.4l-0.1,0.1l-0.2,0.2l-0.2,0.1l-0.2,0.1l-0.2,0.1l-0.2,0.1l-0.2,0.1l-0.2,0.1l-0.2,0.1
		l-0.2,0.1l-0.2,0.1l-0.2,0l-0.2,0l-0.2,0l-0.2,0l-0.2,0l-0.2,0l-0.2,0l-0.2,0h-2.1v3.1h-6l-1.7-2.2l-1.7,2.2h-11.5v-11.4h5.7l0,0h6
		l1.5,2.1l1.6-2.1h7.6l0.3,0l0.3,0l0.3,0l0.3,0l0.3,0l0.3,0l0.2,0l0.3,0.1l0.4,0.1l0.3,0.2l0.3,0.2l0.3,0.2l0.3,0.2l0.2,0.2v-1.4
		h5.8l0.5,0l0.5,0l0.5,0l0.4,0.1l0.4,0.1l0.4,0.1l0.4,0.1l0.3,0.2l0.2,0.1l0.2,0.1l0,0v-0.9h10.1v0.8l0.2-0.2l0.3-0.2l0.3-0.2
		l0.4-0.1l0.4-0.1l0.4-0.1l0.1,0l0.1,0l0.1,0l0.2,0l0.2,0l0.2,0l0.2,0l0.2,0h5.5v0.8l0.2-0.2l0.3-0.2l0.3-0.2l0.4-0.1l0.4-0.1
		l0.4-0.1l0.2,0l0.1,0l0.1,0l0.2,0l0.2,0l0.2,0l0.2,0l0.2,0h4.9V141L219.3,141z M202.6,194l0.4,0l-0.3-0.2l-0.3-0.2l-0.2-0.2
		l-0.1-0.1l-0.1-0.2l-0.1-0.2l-0.1-0.2v1.1h0.9V194L202.6,194z M211.7,193.9L211.7,193.9l0.1,0.1L211.7,193.9L211.7,193.9z
		 M165.6,193.3l0.7-0.9l-0.7-0.9V193.3L165.6,193.3z M194.5,175h-2.1l-0.2,0l-0.2,0l-0.2,0l-0.1,0l-0.1,0l-0.1,0l0,0l0,0l0,0l0,0
		l0,0.1l0,0.1l0,0.2l0,0.2l0,0.3l0,0.3l0,0.4l0,0.3l0,0.3l0.1,0.2l0.1,0.2l0,0.1l0,0l0,0l0,0l0.1,0l0.1,0l0.1,0l0.2,0l0.2,0l0.2,0
		h0.8L194.5,175L194.5,175z"/>
	<path class="st0" d="M157.4,177.1h2.1l-1.7,3.9h-2.4l-2.7-6.7v6.7h-2.2v-8.9h3.4l2.7,6.9L157.4,177.1L157.4,177.1z M160.7,177.1
		h2.2v3.9h-2.2V177.1L160.7,177.1z M165.2,177.1h6.9v0.2h-4.8v2h5.6v1.7h-7.7V177.1L165.2,177.1z M174,177.1h7.7
		c-0.1,0-0.2,0.1-0.3,0.1c0.4,0.1,0.7,0.2,0.9,0.4c0.2,0.1,0.4,0.3,0.6,0.6c0.1,0.2,0.2,0.4,0.3,0.6c0.1,0.2,0.1,0.5,0.1,0.9
		c0.1,0.6,0.1,1.1,0.3,1.3H181c-0.1-0.2-0.2-0.6-0.2-1.3c-0.1-0.5-0.2-0.9-0.3-1.2c-0.2-0.3-0.4-0.5-0.7-0.6c-0.4-0.2-1-0.3-1.7-0.3
		h-1.8v3.4H174V177.1L174,177.1z M184.7,177.1h1.9v3.9h-1.9V177.1L184.7,177.1z M187.8,177.1h2.2c0.1,0.9,0.3,1.6,0.8,1.9
		c0.4,0.3,0.9,0.4,1.7,0.4h1.6l1-2.3h2l-0.1,0.3h2.6l-0.1-0.3h2l1.7,3.9h-2.3l-0.9-2.1h-3.5l-0.9,2.1h-0.4h-1.8H192
		c-0.6,0-1.1,0-1.4-0.1c-1.1-0.2-1.9-0.8-2.4-1.8C188,178.5,187.8,177.9,187.8,177.1L187.8,177.1z M204.1,177.1h1.8v3.9h-1.8V177.1
		L204.1,177.1z M207.5,177.1h1.9l0.9,1.7v-1.7h1.8v3.9h-2.4L207.5,177.1L207.5,177.1z M212.1,177.1h-1.8v-5h1.8V177.1L212.1,177.1z
		 M209.3,177.1h-1.9l-1.5-2.6v2.6h-1.8v-5h2.5L209.3,177.1L209.3,177.1z M201.4,177.1h-2l-1.2-2.8l-1.2,2.8h-2l2.1-5h2.2
		L201.4,177.1L201.4,177.1z M189.9,177.1h-2.2c0-0.2,0-0.3,0-0.5c0-1.2,0.2-2.2,0.7-2.9c0.3-0.5,0.8-0.9,1.4-1.2
		c0.6-0.2,1.3-0.4,2.2-0.4h3.1v1.6h-2.9c-0.9,0-1.5,0.2-1.9,0.7c-0.3,0.4-0.5,1-0.5,2C189.9,176.7,189.9,176.9,189.9,177.1
		L189.9,177.1z M186.6,177.1h-1.9v-5h1.9V177.1L186.6,177.1z M181.6,177.1H174v-5h5.1c1.5,0,2.5,0.2,3,0.5c0.4,0.2,0.7,0.5,0.9,0.8
		c0.2,0.4,0.3,0.7,0.3,1.2c0,0.8-0.3,1.5-0.8,2C182.3,176.8,182,176.9,181.6,177.1L181.6,177.1z M172.1,177.1h-6.9v-5h7.6v1.7h-5.5
		v1.8h4.8V177.1L172.1,177.1z M162.9,177.1h-2.2v-2.7l-1.2,2.7h-2.1l2.1-5h3.4V177.1L162.9,177.1z M202.9,196.9v-1.6h3.9
		c0.6,0,1-0.1,1.3-0.2c0.3-0.2,0.5-0.5,0.5-0.8c0-0.4-0.2-0.7-0.5-0.9c-0.2-0.1-0.5-0.2-1-0.2h-1.6c-1,0-1.7-0.2-2.1-0.5
		c-0.3-0.2-0.5-0.5-0.6-0.9c-0.2-0.3-0.2-0.7-0.2-1.1c0-0.6,0.2-1.2,0.5-1.7c0.3-0.5,0.9-0.8,1.7-0.9c0.3,0,0.6,0,1.1,0h4.3v1.6
		h-3.8c-0.6,0-1,0-1.1,0.1c-0.4,0.1-0.6,0.4-0.6,0.9c0,0.4,0.2,0.7,0.5,0.9c0.2,0.1,0.6,0.1,1.1,0.1h1.4c0.7,0,1.2,0.1,1.6,0.2
		c0.6,0.2,1,0.6,1.3,1.1c0.2,0.4,0.3,0.9,0.3,1.4c0,0.5-0.1,1-0.4,1.5c-0.3,0.6-0.8,1-1.5,1.1c-0.3,0.1-0.8,0.1-1.5,0.1H202.9
		L202.9,196.9z M193.6,188h7.6v1.7h-5.5v1.8h4.8v1.7h-4.8v2h5.6v1.7h-7.7V188L193.6,188z M157.4,188h7l0,0h2.8l2.1,2.9l2.3-2.9h2
		h0.7h4.2c0.9,0,1.5,0.1,1.9,0.2c0.6,0.2,1.2,0.6,1.5,1.2c0.3,0.5,0.4,1,0.4,1.5c0,0.5-0.1,0.9-0.3,1.3c-0.2,0.4-0.4,0.7-0.8,1
		c-0.3,0.2-0.6,0.4-0.9,0.5c-0.3,0.1-0.8,0.1-1.4,0.1h-3.4v3.1h-1.4h-0.7h-2l-2.4-3l-2.3,3h-1.9h-0.9h-6.9V188L157.4,188z
		 M165,188.7v1h-5.5v1.8h4.8v1.7h-4.8v2h5.6l0.5,0l2.3-2.8L165,188.7L165,188.7z M211.7,196.9v-1.6h3.9c0.6,0,1-0.1,1.3-0.2
		c0.3-0.2,0.5-0.5,0.5-0.8c0-0.4-0.2-0.7-0.5-0.9c-0.2-0.1-0.5-0.2-1-0.2h-1.6c-1,0-1.7-0.2-2.1-0.5c-0.3-0.2-0.5-0.5-0.6-0.9
		c-0.1-0.3-0.2-0.7-0.2-1.1c0-0.6,0.2-1.2,0.5-1.7c0.3-0.5,0.9-0.8,1.7-0.9c0.3,0,0.6,0,1.1,0h4.3v1.6H215c-0.6,0-1,0-1.1,0.1
		c-0.4,0.1-0.6,0.4-0.6,0.9c0,0.4,0.2,0.7,0.5,0.9c0.2,0.1,0.6,0.1,1.1,0.1h1.4c0.7,0,1.2,0.1,1.6,0.2c0.6,0.2,1,0.6,1.3,1.1
		c0.2,0.4,0.3,0.9,0.3,1.4c0,0.5-0.1,1-0.4,1.5c-0.3,0.6-0.8,1-1.5,1.1c-0.3,0.1-0.8,0.1-1.5,0.1H211.7L211.7,196.9z M186,192h2.8
		c0.5,0,0.8-0.1,1-0.2c0.3-0.2,0.4-0.5,0.4-1c0-0.5-0.2-0.9-0.7-1c-0.2-0.1-0.4-0.1-0.8-0.1H186V192L186,192z M186,193.5v3.4h-2V188
		h4.5c1.3,0,2.2,0.2,2.7,0.5c0.4,0.2,0.6,0.5,0.8,0.8c0.2,0.4,0.3,0.7,0.3,1.2c0,0.8-0.2,1.5-0.7,2c-0.3,0.3-0.6,0.5-1.1,0.6
		c0.4,0.1,0.6,0.2,0.8,0.4c0.2,0.1,0.4,0.3,0.5,0.6c0.1,0.2,0.2,0.4,0.2,0.6c0,0.2,0.1,0.5,0.1,0.9c0.1,0.6,0.1,1.1,0.2,1.3h-2.2
		c-0.1-0.2-0.1-0.6-0.2-1.3c-0.1-0.5-0.2-0.9-0.3-1.2c-0.1-0.3-0.4-0.5-0.7-0.6c-0.4-0.2-0.9-0.3-1.6-0.3H186L186,193.5z
		 M173.7,188.9l-2.9,3.5l2.9,3.6V188.9L173.7,188.9z M175.8,192.2h2.9c0.5,0,0.9-0.1,1.1-0.2c0.3-0.2,0.5-0.6,0.5-1.1
		c0-0.6-0.2-1-0.7-1.2c-0.2-0.1-0.4-0.1-0.8-0.1h-2.9V192.2L175.8,192.2z M144.9,174.3l-1.3,3.1h2.6L144.9,174.3L144.9,174.3z
		 M140,181l3.8-8.9h2.2l3.8,8.9h-2.3l-0.9-2.1h-3.5l-0.9,2.1H140L140,181z M176.2,176.1h3.1c0.5,0,0.9-0.1,1.1-0.2
		c0.3-0.2,0.5-0.5,0.5-1c0-0.5-0.2-0.9-0.7-1c-0.2-0.1-0.5-0.1-0.9-0.1h-3.1V176.1L176.2,176.1z"/>
</g>
</svg>
