<?xml version="1.0" encoding="utf-8"?>
<!-- Generator: Adobe Illustrator 25.1.0, SVG Export Plug-In . SVG Version: 6.00 Build 0)  -->
<svg version="1.1" id="Layer_1" xmlns="http://www.w3.org/2000/svg" xmlns:xlink="http://www.w3.org/1999/xlink" x="0px" y="0px"
	 viewBox="0 0 89.8 90.1" style="enable-background:new 0 0 89.8 90.1;" xml:space="preserve">
<style type="text/css">
	.st0{fill:#FFFFFF;}
</style>
<path class="st0" d="M19.8,33c-0.9,1.1-2.4,2-3.9,1.8c-0.2-1.5,0.5-3.1,1.4-4c0.9-1.1,2.5-1.9,3.9-2C21.3,30.4,20.7,31.9,19.8,33
	 M21.2,35.1c-2.1-0.1-4,1.2-5,1.2c-1,0-2.6-1.2-4.3-1.1c-2.2,0-4.3,1.3-5.4,3.3c-2.3,4-0.6,9.9,1.6,13.1c1.1,1.6,2.4,3.4,4.1,3.3
	c1.6-0.1,2.3-1.1,4.3-1.1c2,0,2.6,1.1,4.3,1c1.8,0,2.9-1.6,4-3.2c1.2-1.8,1.8-3.6,1.8-3.7c0,0-3.5-1.3-3.5-5.3c0-3.3,2.7-4.9,2.8-5
	C24.4,35.5,22,35.2,21.2,35.1 M33.6,30.7v24.1h3.7v-8.2h5.2c4.7,0,8-3.2,8-7.9s-3.3-7.9-7.9-7.9L33.6,30.7z M37.3,33.8h4.3
	c3.2,0,5.1,1.7,5.1,4.8c0,3-1.9,4.8-5.1,4.8h-4.3V33.8z M57.3,54.9c2.3,0,4.5-1.2,5.5-3.1h0.1v2.9h3.5v-12c0-3.5-2.8-5.7-7.1-5.7
	c-4,0-6.9,2.3-7,5.4h3.4c0.3-1.5,1.7-2.5,3.5-2.5c2.3,0,3.6,1.1,3.6,3v1.3l-4.7,0.3c-4.3,0.3-6.7,2-6.7,5.1
	C51.4,52.8,53.9,54.9,57.3,54.9z M58.3,52.1c-2,0-3.3-1-3.3-2.4c0-1.5,1.2-2.4,3.5-2.5l4.2-0.3v1.4C62.8,50.5,60.9,52.1,58.3,52.1z
	 M71,61.3c3.6,0,5.4-1.4,6.9-5.6l6.6-18.4h-3.8l-4.4,14.2h-0.1l-4.4-14.2h-3.9l6.3,17.5l-0.3,1.1c-0.6,1.8-1.5,2.5-3.1,2.5
	c-0.3,0-0.9,0-1.1-0.1v2.9C69.8,61.2,70.7,61.3,71,61.3L71,61.3z"/>
</svg>
