<?xml version="1.0" encoding="utf-8"?>
<!-- Generator: Adobe Illustrator 25.1.0, SVG Export Plug-In . SVG Version: 6.00 Build 0)  -->
<svg version="1.1" id="Layer_1" xmlns="http://www.w3.org/2000/svg" xmlns:xlink="http://www.w3.org/1999/xlink" x="0px" y="0px"
	 viewBox="0 0 1654.6 345.1" style="enable-background:new 0 0 1654.6 345.1;" xml:space="preserve">
<style type="text/css">
	.st0{fill-rule:evenodd;clip-rule:evenodd;fill:#FFFFFF;}
</style>
<g>
	<path class="st0" d="M29.2,52c0-4.1,0.6-5.6,5.3-5.6c24,0.3,48-0.3,72,0.4c35.3,1.1,67.3,11.4,93.4,36.3
		c18,17.1,29.3,38.1,33.7,62.5c8.9,48.5-4.8,89.7-41.8,122.6c-20.2,18-44.3,27-71,29.1c-29.4,2.4-58.9,0.5-88.4,1.1
		c-3.5,0.1-3.1-1.8-3.1-4C29.3,269.6,29.4,92.2,29.2,52z M78.3,251.1c0,3.4,0.7,4.5,4.3,4.5c9.8-0.1,19.7,0,29.4-1.1
		c17.8-2,34.6-7.1,47.6-20.2c21.9-22,30-48.7,23.9-78.9c-6.1-30.4-23.7-51.9-54-61.3c-14.8-4.6-30.2-4.3-45.5-4.5
		c-4.4-0.1-5.9,0.8-5.8,5.6C78.5,121,78.4,225,78.3,251.1z"/>
	<path class="st0" d="M1517.9,192.8c26.4,35.3,52.3,70,78.9,105.6c-4.1,0-7.4,0-10.6,0c-14.8,0-29.7-0.2-44.5,0.1
		c-4.5,0.1-6.8-1.6-9.1-5.1c-20.6-30.8-41.3-61.5-62-92.3c-0.3-0.4-0.6-0.8-0.8-1.3c-1.3-3.1-3.9-2.9-6.3-2.4
		c-2.6,0.5-1.4,3-1.4,4.6c-0.1,30.2-0.2,60.3,0.1,90.5c0,5-1.4,6-6.1,5.9c-13-0.3-26-0.2-39,0c-3.3,0-4.6-0.6-4.6-4.3
		c0.1-81.2,0.1-162.3,0-243.5c0-2.8,0.3-4.2,3.7-4.2c28,0.6,56-1.1,83.9,1c19.4,1.5,37.7,6.7,52.6,20c17.9,15.9,22.9,36.7,21.7,59.6
		c-1.8,33.7-20.2,56-52.9,64.3C1520.4,191.8,1519.4,192.3,1517.9,192.8z M1462.1,124.6c0,11.1,0.2,22.3-0.1,33.4
		c-0.1,3.9,1.1,4.7,4.7,4.5c7.3-0.3,14.6-0.1,21.9-0.9c21.4-2.3,33.5-14.6,35.1-36c1.3-17.2-7.5-30.3-23.9-35.7
		c-10.8-3.5-21.9-3.2-33-3.4c-3.6-0.1-4.9,0.7-4.8,4.6C1462.2,102.3,1462.1,113.4,1462.1,124.6z"/>
	<path class="st0" d="M1241.2,51.5c0-3.8,0.8-5,4.8-5c43.3,0.2,86.7,0.1,130,0c3.4,0,4.6,0.7,4.5,4.3c-0.2,11.7-0.2,23.3,0,35
		c0.1,3.5-1.2,4-4.3,4c-26.8-0.1-53.7,0.1-80.5-0.2c-4.6,0-5.5,1.3-5.4,5.6c0.3,15.2,0.2,30.3,0,45.5c-0.1,3.8,1,4.7,4.7,4.7
		c25.8-0.2,51.7,0,77.5-0.2c4.1,0,4.9,1.2,4.8,5c-0.2,11.2-0.2,22.3,0,33.5c0.1,3.5-0.9,4.4-4.4,4.3c-25.7-0.2-51.3,0.1-77-0.2
		c-4.8,0-5.7,1.5-5.6,5.8c0.2,19,0.2,38,0,57c0,3.8,0.7,5,4.8,5c26.8-0.2,53.7,0,80.5-0.2c4,0,4.9,1.1,4.8,4.9
		c-0.3,11.5-0.2,23,0,34.5c0,2.8-0.6,3.7-3.6,3.7c-44-0.1-88-0.1-132,0c-4,0-3.7-1.9-3.7-4.6C1241.3,253.3,1241.4,91.6,1241.2,51.5z
		"/>
	<path class="st0" d="M357.9,225.6c6.6,12.4,15.4,22.5,28.2,28.2c13.8,6.1,28.1,8.2,42.4,1.8c13-5.8,20.1-16.2,20.7-30.4
		c0.6-14-7-23.4-19.1-29.5c-14-7-29.1-11.1-43.4-17.3c-14-6.1-27.3-13.1-36.9-25.5c-5.9-7.6-9.2-16.3-10.3-25.5
		c-5.1-41.4,17.6-70.9,51.9-80.7c35.9-10.2,68.2-1.2,97.1,21.5c2.1,1.7,2.9,2.9,0.8,5.4c-7.4,9.2-14.6,18.6-21.5,28.1
		c-2.1,2.9-3,2.1-5,0c-7.9-8.4-16.9-15.2-28.6-16.9c-14.8-2.1-28.8-0.2-39.1,12c-9.2,11-7.2,24.8,4.5,33
		c10.4,7.4,22.5,11.1,34.3,15.6c11,4.3,21.7,9,32,14.8c21,11.9,32.5,29.3,34,53.8c2.5,41.3-19.2,76.1-59.6,86.5
		c-43.1,11.1-85.3-1.2-112.9-42c-1.1-1.7-1.3-2.7,0.3-4.2C337.9,245,347.8,235.4,357.9,225.6z"/>
	<path class="st0" d="M977.4,46.6c17.1,0,33.4,0.1,49.7-0.1c3.3,0,4.5,1.1,5.7,4c15,38,58.3,146.9,65,163.7
		c3-3.4,46.3-113.1,66.7-163.9c0.8-2,1.4-3.8,4.4-3.8c16.7,0.1,33.3,0.1,50.7,0.1c-4,9.5-75.3,178.8-107,254.3c-1.3,3-2.7,4-5.8,3.9
		c-6.3-0.2-12.7-0.2-19,0c-2.8,0.1-4.1-0.9-5.1-3.5C1063,253.9,994.4,88,979.7,52.5C979,50.7,978.3,48.9,977.4,46.6z"/>
	<path class="st0" d="M709.6,114.7c-9.3-8.9-18.2-16.3-28.8-21.3c-41.8-19.3-92.2,1.4-108.3,45.8c-12.4,34.2-8.3,66.7,16.7,94.4
		c16.7,18.6,38.7,25.3,63.3,25.1c19.5-0.2,35.6-8.1,49.9-20.7c2.1-1.9,4.1-3.8,6.2-5.7c1.8,1,1,2.5,1,3.6c0.1,16.5,0,33,0.1,49.5
		c0,2.5-0.4,4-3.1,5.3c-50.5,24.3-114.4,14.7-154-25.8c-24.5-25-36.5-55.3-37.3-90.3c-1.3-59.2,38.2-110.8,93-127.4
		c33.7-10.2,66.6-8.2,98.3,7.7c1.7,0.9,3,1.6,3,4C709.5,77.1,709.6,95.3,709.6,114.7z"/>
	<path class="st0" d="M308,292.9c0,4.1-0.6,5.8-5.3,5.6c-13.3-0.4-26.7-0.2-40-0.1c-3.2,0-4.2-0.8-4.2-4.1
		c0.1-81.2,0.1-162.3,0-243.5c0-3.7,1.2-4.4,4.6-4.3c13.2,0.2,26.3,0.3,39.5,0c4.4-0.1,5.6,0.9,5.5,5.4
		C307.8,92.2,307.8,252.9,308,292.9z"/>
	<path class="st0" d="M1597.2,52.1c0.1,0.6,0.2,1.2,0.3,1.8c0,6.8,0,13.6,0,20.4c-0.1,0.8-0.1,1.7-0.2,2.5
		C1588.8,69.7,1588.7,58.8,1597.2,52.1z"/>
	<path class="st0" d="M1606.1,44.9c-10.6,0-19.3,8.7-19.3,19.4s8.6,19.4,19.3,19.4s19.3-8.7,19.3-19.4S1616.7,44.9,1606.1,44.9z
		 M1606.1,80.1c-8.4,0-15.2-7.1-15.2-15.8s6.8-15.8,15.2-15.8c8.4,0,15.2,7.1,15.2,15.8S1614.5,80.1,1606.1,80.1z"/>
	<path class="st0" d="M1607.8,66.3c2.4,3.2,4.7,6.3,7.1,9.5c-0.4,0-0.7,0-1,0c-1.3,0-2.7,0-4,0c-0.4,0-0.6-0.1-0.8-0.5
		c-1.9-2.8-3.7-5.6-5.6-8.3c0,0-0.1-0.1-0.1-0.1c-0.1-0.3-0.4-0.3-0.6-0.2c-0.2,0-0.1,0.3-0.1,0.4c0,2.7,0,5.4,0,8.2
		c0,0.5-0.1,0.5-0.6,0.5c-1.2,0-2.3,0-3.5,0c-0.3,0-0.4,0-0.4-0.4c0-7.3,0-14.7,0-22c0-0.2,0-0.4,0.3-0.4c2.5,0.1,5.1-0.1,7.6,0.1
		c1.8,0.1,3.4,0.6,4.7,1.8c1.6,1.4,2.1,3.3,2,5.4c-0.2,3-1.8,5.1-4.8,5.8C1608,66.2,1607.9,66.2,1607.8,66.3z M1602.7,60.1
		c0,1,0,2,0,3c0,0.4,0.1,0.4,0.4,0.4c0.7,0,1.3,0,2-0.1c1.9-0.2,3-1.3,3.2-3.3c0.1-1.6-0.7-2.7-2.2-3.2c-1-0.3-2-0.3-3-0.3
		c-0.3,0-0.4,0.1-0.4,0.4C1602.7,58.1,1602.7,59.1,1602.7,60.1z"/>
	<g>
		<ellipse class="st0" cx="858.3" cy="172.5" rx="133.1" ry="133.6"/>
		<g>
			<defs>
				<ellipse id="SVGID_1_" cx="858.3" cy="172.5" rx="133.1" ry="133.6"/>
			</defs>
			<use xlink:href="#SVGID_1_"  style="overflow:visible;fill-rule:evenodd;clip-rule:evenodd;fill:#FFFFFF;"/>
			<clipPath id="SVGID_2_">
				<use xlink:href="#SVGID_1_"  style="overflow:visible;"/>
			</clipPath>
		</g>
	</g>
</g>
</svg>
