<?xml version="1.0" encoding="utf-8"?>
<!-- Generator: Adobe Illustrator 25.1.0, SVG Export Plug-In . SVG Version: 6.00 Build 0)  -->
<svg version="1.1" id="Layer_1" xmlns="http://www.w3.org/2000/svg" xmlns:xlink="http://www.w3.org/1999/xlink" x="0px" y="0px"
	 viewBox="0 0 89.8 90.1" style="enable-background:new 0 0 89.8 90.1;" xml:space="preserve">
<style type="text/css">
	.st0{fill-rule:evenodd;clip-rule:evenodd;fill:#FFFFFF;}
	.st1{fill:#FFFFFF;}
</style>
<g>
	<path class="st0" d="M4,38.9c0-0.2,0-0.3,0.3-0.3c1.2,0,2.5,0,3.7,0c1.8,0.1,3.5,0.6,4.8,1.9c0.9,0.9,1.5,2,1.7,3.2
		c0.5,2.5-0.2,4.6-2.1,6.3c-1,0.9-2.3,1.4-3.6,1.5c-1.5,0.1-3,0-4.5,0.1c-0.2,0-0.2-0.1-0.2-0.2C4,50.1,4,41,4,38.9z M6.5,49.1
		c0,0.2,0,0.2,0.2,0.2c0.5,0,1,0,1.5-0.1c0.9-0.1,1.8-0.4,2.4-1c1.1-1.1,1.5-2.5,1.2-4c-0.3-1.6-1.2-2.7-2.8-3.1
		c-0.8-0.2-1.5-0.2-2.3-0.2c-0.2,0-0.3,0-0.3,0.3C6.5,42.4,6.5,47.8,6.5,49.1z"/>
	<path class="st0" d="M80.3,46.1c1.4,1.8,2.7,3.6,4,5.4c-0.2,0-0.4,0-0.5,0c-0.8,0-1.5,0-2.3,0c-0.2,0-0.3-0.1-0.5-0.3
		c-1.1-1.6-2.1-3.2-3.2-4.7c0,0,0,0,0-0.1c-0.1-0.2-0.2-0.1-0.3-0.1c-0.1,0-0.1,0.2-0.1,0.2c0,1.5,0,3.1,0,4.6
		c0,0.3-0.1,0.3-0.3,0.3c-0.7,0-1.3,0-2,0c-0.2,0-0.2,0-0.2-0.2c0-4.2,0-8.3,0-12.5c0-0.1,0-0.2,0.2-0.2c1.4,0,2.9-0.1,4.3,0.1
		c1,0.1,1.9,0.3,2.7,1c0.9,0.8,1.2,1.9,1.1,3.1c-0.1,1.7-1,2.9-2.7,3.3C80.4,46.1,80.4,46.1,80.3,46.1z M77.4,42.6
		c0,0.6,0,1.1,0,1.7c0,0.2,0.1,0.2,0.2,0.2c0.4,0,0.7,0,1.1,0c1.1-0.1,1.7-0.7,1.8-1.8c0.1-0.9-0.4-1.6-1.2-1.8
		c-0.6-0.2-1.1-0.2-1.7-0.2c-0.2,0-0.3,0-0.2,0.2C77.4,41.5,77.4,42,77.4,42.6z"/>
	<path class="st0" d="M66.1,38.9c0-0.2,0-0.3,0.2-0.3c2.2,0,4.4,0,6.7,0c0.2,0,0.2,0,0.2,0.2c0,0.6,0,1.2,0,1.8
		c0,0.2-0.1,0.2-0.2,0.2c-1.4,0-2.8,0-4.1,0c-0.2,0-0.3,0.1-0.3,0.3c0,0.8,0,1.6,0,2.3c0,0.2,0.1,0.2,0.2,0.2c1.3,0,2.7,0,4,0
		c0.2,0,0.3,0.1,0.2,0.3c0,0.6,0,1.1,0,1.7c0,0.2,0,0.2-0.2,0.2c-1.3,0-2.6,0-3.9,0c-0.2,0-0.3,0.1-0.3,0.3c0,1,0,1.9,0,2.9
		c0,0.2,0,0.3,0.2,0.3c1.4,0,2.8,0,4.1,0c0.2,0,0.3,0.1,0.2,0.3c0,0.6,0,1.2,0,1.8c0,0.1,0,0.2-0.2,0.2c-2.3,0-4.5,0-6.8,0
		c-0.2,0-0.2-0.1-0.2-0.2C66.1,49.2,66.1,40.9,66.1,38.9z"/>
	<path class="st0" d="M20.8,47.8c0.3,0.6,0.8,1.2,1.4,1.4c0.7,0.3,1.4,0.4,2.2,0.1c0.7-0.3,1-0.8,1.1-1.6c0-0.7-0.4-1.2-1-1.5
		c-0.7-0.4-1.5-0.6-2.2-0.9c-0.7-0.3-1.4-0.7-1.9-1.3c-0.3-0.4-0.5-0.8-0.5-1.3c-0.3-2.1,0.9-3.6,2.7-4.1c1.8-0.5,3.5-0.1,5,1.1
		c0.1,0.1,0.1,0.1,0,0.3c-0.4,0.5-0.7,1-1.1,1.4c-0.1,0.1-0.2,0.1-0.3,0c-0.4-0.4-0.9-0.8-1.5-0.9c-0.8-0.1-1.5,0-2,0.6
		c-0.5,0.6-0.4,1.3,0.2,1.7c0.5,0.4,1.2,0.6,1.8,0.8c0.6,0.2,1.1,0.5,1.6,0.8c1.1,0.6,1.7,1.5,1.7,2.8c0.1,2.1-1,3.9-3.1,4.4
		c-2.2,0.6-4.4-0.1-5.8-2.2c-0.1-0.1-0.1-0.1,0-0.2C19.8,48.8,20.3,48.3,20.8,47.8z"/>
	<path class="st0" d="M52.6,38.6c0.9,0,1.7,0,2.5,0c0.2,0,0.2,0.1,0.3,0.2c0.8,1.9,3,7.5,3.3,8.4c0.2-0.2,2.4-5.8,3.4-8.4
		c0-0.1,0.1-0.2,0.2-0.2c0.9,0,1.7,0,2.6,0c-0.2,0.5-3.9,9.2-5.5,13c-0.1,0.2-0.1,0.2-0.3,0.2c-0.3,0-0.7,0-1,0
		c-0.1,0-0.2,0-0.3-0.2c-1-2.4-4.5-10.9-5.3-12.8C52.7,38.8,52.6,38.7,52.6,38.6z"/>
	<path class="st0" d="M38.8,42.1c-0.5-0.5-0.9-0.8-1.5-1.1c-2.1-1-4.7,0.1-5.6,2.3c-0.6,1.8-0.4,3.4,0.9,4.8c0.9,1,2,1.3,3.2,1.3
		c1,0,1.8-0.4,2.6-1.1c0.1-0.1,0.2-0.2,0.3-0.3c0.1,0.1,0.1,0.1,0.1,0.2c0,0.8,0,1.7,0,2.5c0,0.1,0,0.2-0.2,0.3
		c-2.6,1.2-5.9,0.8-7.9-1.3c-1.3-1.3-1.9-2.8-1.9-4.6c-0.1-3,2-5.7,4.8-6.5c1.7-0.5,3.4-0.4,5,0.4c0.1,0,0.2,0.1,0.2,0.2
		C38.8,40.2,38.8,41.1,38.8,42.1z"/>
	<path class="st0" d="M18.3,51.2c0,0.2,0,0.3-0.3,0.3c-0.7,0-1.4,0-2.1,0c-0.2,0-0.2,0-0.2-0.2c0-4.2,0-8.3,0-12.5
		c0-0.2,0.1-0.2,0.2-0.2c0.7,0,1.3,0,2,0c0.2,0,0.3,0,0.3,0.3C18.2,41,18.2,49.2,18.3,51.2z"/>
	<path class="st0" d="M84.4,38.9C84.4,38.9,84.4,39,84.4,38.9c0,0.4,0,0.8,0,1.1c0,0,0,0.1,0,0.1C83.9,39.8,83.9,39.2,84.4,38.9z"/>
	<path class="st0" d="M84.8,38.5c-0.5,0-1,0.4-1,1s0.4,1,1,1s1-0.4,1-1S85.4,38.5,84.8,38.5z M84.8,40.3c-0.4,0-0.8-0.4-0.8-0.8
		s0.3-0.8,0.8-0.8c0.4,0,0.8,0.4,0.8,0.8S85.2,40.3,84.8,40.3z"/>
	<path class="st0" d="M84.9,39.6c0.1,0.2,0.2,0.3,0.4,0.5c0,0,0,0-0.1,0c-0.1,0-0.1,0-0.2,0c0,0,0,0,0,0c-0.1-0.1-0.2-0.3-0.3-0.4
		l0,0c0,0,0,0,0,0c0,0,0,0,0,0c0,0.1,0,0.3,0,0.4c0,0,0,0,0,0c-0.1,0-0.1,0-0.2,0c0,0,0,0,0,0c0-0.4,0-0.8,0-1.1c0,0,0,0,0,0
		c0.1,0,0.3,0,0.4,0c0.1,0,0.2,0,0.2,0.1c0.1,0.1,0.1,0.2,0.1,0.3C85.1,39.5,85.1,39.6,84.9,39.6C84.9,39.6,84.9,39.6,84.9,39.6z
		 M84.6,39.3c0,0.1,0,0.1,0,0.2c0,0,0,0,0,0c0,0,0.1,0,0.1,0c0.1,0,0.2-0.1,0.2-0.2c0-0.1,0-0.1-0.1-0.2c-0.1,0-0.1,0-0.2,0
		c0,0,0,0,0,0C84.6,39.2,84.6,39.3,84.6,39.3z"/>
	<g>
		<ellipse class="st0" cx="46.5" cy="45.1" rx="6.8" ry="6.9"/>
		<g>
			<g>
				<ellipse id="SVGID_1_" class="st0" cx="46.5" cy="45.1" rx="6.8" ry="6.9"/>
			</g>
		</g>
	</g>
</g>
</svg>
