<svg id="Layer_1" data-name="Layer 1" xmlns="http://www.w3.org/2000/svg" viewBox="0 0 432 144"><defs><style>.cls-1{fill:#231f20;}</style></defs><path class="cls-1" d="M64.4,68.53c0,16.06-11.66,25.91-24.18,25.91H18.57v-2.6h5.5V45.29h-5.5V42.75H40.36c12.67,0,24,9.92,24,25.78M27,91.84H40c10.28,0,21.43-8.91,21.43-23.31,0-13.76-10.21-23.24-21.07-23.24H27Z"/><path class="cls-1" d="M96,95.17a26.5,26.5,0,1,1,26.64-26.5A26.57,26.57,0,0,1,96,95.17m0-3A23.57,23.57,0,1,0,72.48,68.67,23.68,23.68,0,0,0,96,92.2"/><polygon class="cls-1" points="176.51 48.26 154.36 95.46 132.21 48.26 132.21 91.84 136.99 91.84 136.99 94.44 124.46 94.44 124.46 91.84 129.24 91.84 129.24 45.22 124.46 45.22 124.46 42.75 132.72 42.75 154.36 88.72 176.01 42.68 184.26 42.68 184.26 45.22 179.48 45.22 179.48 91.84 184.26 91.84 184.26 94.44 171.73 94.44 171.73 91.84 176.51 91.84 176.51 48.26"/><polygon class="cls-1" points="204.54 45.29 198.97 45.29 198.97 91.84 204.54 91.84 204.54 94.44 190.5 94.44 190.5 91.84 196.07 91.84 196.07 45.29 190.5 45.29 190.5 42.75 204.54 42.75 204.54 45.29"/><polygon class="cls-1" points="253.7 45.29 249.21 45.29 249.21 42.75 261.08 42.75 261.08 45.29 256.59 45.29 256.59 94.59 255.44 94.59 218 49.27 218 91.84 222.43 91.84 222.43 94.44 210.62 94.44 210.62 91.84 215.04 91.84 215.04 45.29 210.62 45.29 210.62 42.75 216.56 42.75 253.7 87.64 253.7 45.29"/><polygon class="cls-1" points="280.71 45.29 275.14 45.29 275.14 91.84 280.71 91.84 280.71 94.44 266.66 94.44 266.66 91.84 272.24 91.84 272.24 45.29 266.66 45.29 266.66 42.75 280.71 42.75 280.71 45.29"/><path class="cls-1" d="M334.43,97.34v3a20.29,20.29,0,0,1-7.68,1.51,16.88,16.88,0,0,1-8.32-2,15,15,0,0,0-7.31-1.88A21.53,21.53,0,0,0,300,100.67V97.85c4.12-2.54,8.25-2.68,11.58-2.68a26.5,26.5,0,1,1,26.64-26.5C338.19,83.3,326,94.23,313.5,95a23.41,23.41,0,0,1,6.08,2.24,14.6,14.6,0,0,0,7.17,1.6,18,18,0,0,0,7.68-1.52M311.55,92.2A23.57,23.57,0,1,0,288,68.67,23.68,23.68,0,0,0,311.55,92.2"/><path class="cls-1" d="M334.43,97.34v3a20.29,20.29,0,0,1-7.68,1.51,16.88,16.88,0,0,1-8.32-2,15,15,0,0,0-7.31-1.88A21.53,21.53,0,0,0,300,100.67V97.85c4.12-2.54,8.25-2.68,11.58-2.68a26.5,26.5,0,1,1,26.64-26.5C338.19,83.3,326,94.23,313.5,95a23.41,23.41,0,0,1,6.08,2.24,14.6,14.6,0,0,0,7.17,1.6,18,18,0,0,0,7.68-1.52M311.55,92.2A23.57,23.57,0,1,0,288,68.67,23.68,23.68,0,0,0,311.55,92.2"/><path class="cls-1" d="M352.61,45.72h-4.49V81.56c0,7.31,6.38,10.64,12.09,10.64s12-3.33,12-10.64V45.72h-4.41v-3h11.8v3H375.2V81.26c0,9.27-7.6,13.69-15,13.69s-15-4.42-15-13.69V45.72h-4.49v-3h11.87Z"/><polygon class="cls-1" points="413.43 52.44 410.46 52.44 410.46 45.29 391.56 45.29 391.56 64.33 401.72 64.33 401.72 60.63 404.54 60.63 404.54 70.55 401.72 70.55 401.72 66.86 391.56 66.86 391.56 91.84 410.46 91.84 410.46 84.83 413.43 84.83 413.43 94.44 383.1 94.44 383.1 91.84 388.6 91.84 388.6 45.29 383.1 45.29 383.1 42.75 413.43 42.75 413.43 52.44"/></svg>