<?xml version="1.0" encoding="utf-8"?>
<!-- Generator: Adobe Illustrator 25.1.0, SVG Export Plug-In . SVG Version: 6.00 Build 0)  -->
<svg version="1.1" id="Layer_1" xmlns="http://www.w3.org/2000/svg" xmlns:xlink="http://www.w3.org/1999/xlink" x="0px" y="0px"
	 viewBox="0 0 89.8 90.1" style="enable-background:new 0 0 89.8 90.1;" xml:space="preserve">
<style type="text/css">
	.st0{fill-rule:evenodd;clip-rule:evenodd;fill:#FFFFFF;}
	.st1{fill:#FFFFFF;}
</style>
<g>
	<path class="st1" d="M20.4,74.5v-4c0-1.5-0.9-2.5-2.5-2.5c-0.8,0-1.7,0.3-2.3,1.1c-0.5-0.7-1.1-1.1-2.1-1.1c-0.7,0-1.3,0.2-1.9,0.9
		v-0.8h-1.4v6.4h1.4v-3.5c0-1.1,0.6-1.7,1.5-1.7c0.9,0,1.4,0.6,1.4,1.7v3.5h1.4v-3.5c0-1.1,0.7-1.7,1.5-1.7c0.9,0,1.4,0.6,1.4,1.7
		v3.5H20.4z M41.2,68.1h-2.3v-1.9h-1.4v1.9h-1.3v1.3h1.3v2.9c0,1.5,0.6,2.3,2.2,2.3c0.6,0,1.3-0.2,1.7-0.5L41,73
		c-0.4,0.3-0.9,0.3-1.2,0.3c-0.7,0-0.9-0.4-0.9-1.1v-2.9h2.3V68.1z M53,67.9c-0.8,0-1.3,0.4-1.7,0.9v-0.8H50v6.4h1.4v-3.6
		c0-1.1,0.5-1.7,1.3-1.7c0.3,0,0.6,0.1,0.9,0.1L54,68C53.7,67.9,53.3,67.9,53,67.9L53,67.9z M35.1,68.6c-0.7-0.5-1.6-0.7-2.6-0.7
		c-1.6,0-2.7,0.8-2.7,2.1c0,1.1,0.8,1.7,2.2,1.9l0.7,0.1c0.7,0.1,1.1,0.3,1.1,0.7c0,0.5-0.5,0.8-1.5,0.8c-0.9,0-1.7-0.3-2.1-0.7
		l-0.7,1.1c0.7,0.5,1.7,0.8,2.7,0.8c1.9,0,2.9-0.9,2.9-2.1c0-1.1-0.9-1.7-2.2-1.9l-0.7-0.1c-0.6-0.1-1.1-0.2-1.1-0.6
		c0-0.5,0.5-0.7,1.2-0.7c0.8,0,1.6,0.3,2,0.5L35.1,68.6z M72.4,67.9c-0.8,0-1.3,0.4-1.7,0.9v-0.8h-1.4v6.4h1.4v-3.6
		c0-1.1,0.5-1.7,1.3-1.7c0.3,0,0.6,0.1,0.9,0.1l0.4-1.3C73,67.9,72.6,67.9,72.4,67.9L72.4,67.9z M54.5,71.3c0,1.9,1.3,3.3,3.4,3.3
		c0.9,0,1.6-0.2,2.3-0.7l-0.7-1.1c-0.5,0.4-1.1,0.6-1.7,0.6c-1.1,0-1.9-0.8-1.9-2.1c0-1.2,0.8-2,1.9-2.1c0.6,0,1.1,0.2,1.7,0.6
		l0.7-1.1c-0.7-0.5-1.3-0.7-2.3-0.7C55.8,67.9,54.5,69.3,54.5,71.3L54.5,71.3z M67.4,71.3v-3.2H66v0.8c-0.5-0.6-1.1-0.9-2-0.9
		c-1.8,0-3.2,1.4-3.2,3.3s1.4,3.3,3.2,3.3c0.9,0,1.6-0.3,2-0.9v0.8h1.4V71.3z M62.3,71.3c0-1.1,0.7-2.1,1.9-2.1
		c1.1,0,1.9,0.9,1.9,2.1c0,1.1-0.8,2.1-1.9,2.1C63,73.3,62.3,72.4,62.3,71.3L62.3,71.3z M45.5,67.9c-1.9,0-3.2,1.3-3.2,3.3
		c0,2,1.3,3.3,3.3,3.3c0.9,0,1.9-0.3,2.6-0.9l-0.7-1c-0.5,0.4-1.2,0.7-1.9,0.7c-0.9,0-1.7-0.4-1.9-1.5h4.7c0-0.2,0-0.3,0-0.5
		C48.5,69.3,47.3,67.9,45.5,67.9L45.5,67.9z M45.5,69.1c0.9,0,1.5,0.5,1.6,1.5h-3.3C43.9,69.8,44.5,69.1,45.5,69.1L45.5,69.1z
		 M80.3,71.3v-5.7h-1.4v3.3c-0.5-0.6-1.1-0.9-2-0.9c-1.8,0-3.2,1.4-3.2,3.3s1.4,3.3,3.2,3.3c0.9,0,1.6-0.3,2-0.9v0.8h1.4V71.3z
		 M75.2,71.3c0-1.1,0.7-2.1,1.9-2.1c1.1,0,1.9,0.9,1.9,2.1c0,1.1-0.8,2.1-1.9,2.1C75.9,73.3,75.2,72.4,75.2,71.3L75.2,71.3z
		 M28.3,71.3v-3.2h-1.4v0.8c-0.5-0.6-1.1-0.9-2-0.9c-1.8,0-3.2,1.4-3.2,3.3s1.4,3.3,3.2,3.3c0.9,0,1.6-0.3,2-0.9v0.8h1.4V71.3z
		 M23.1,71.3c0-1.1,0.7-2.1,1.9-2.1c1.1,0,1.9,0.9,1.9,2.1c0,1.1-0.8,2.1-1.9,2.1C23.8,73.3,23.1,72.4,23.1,71.3z M82.6,73.6
		c0.1,0,0.2,0,0.3,0.1c0.1,0,0.1,0.1,0.2,0.1c0.1,0.1,0.1,0.1,0.1,0.2c0.1,0.1,0.1,0.1,0.1,0.3c0,0.1,0,0.2-0.1,0.3
		c-0.1,0.1-0.1,0.1-0.1,0.2c-0.1,0.1-0.1,0.1-0.2,0.1c-0.1,0.1-0.1,0.1-0.3,0.1c-0.1,0-0.2,0-0.3-0.1c-0.1-0.1-0.1-0.1-0.2-0.1
		c-0.1-0.1-0.1-0.1-0.1-0.2C82,74.4,82,74.4,82,74.2c0-0.1,0-0.2,0.1-0.3c0.1-0.1,0.1-0.1,0.1-0.2c0.1-0.1,0.1-0.1,0.2-0.1
		C82.4,73.6,82.6,73.6,82.6,73.6z M82.6,74.7c0.1,0,0.1,0,0.2-0.1c0.1,0,0.1-0.1,0.1-0.1c0.1-0.1,0.1-0.1,0.1-0.1
		c0-0.1,0.1-0.1,0.1-0.2c0-0.1,0-0.1-0.1-0.2c0-0.1-0.1-0.1-0.1-0.1c-0.1-0.1-0.1-0.1-0.1-0.1c-0.1,0-0.1-0.1-0.2-0.1
		c-0.1,0-0.1,0-0.2,0.1c-0.1,0-0.1,0.1-0.1,0.1c-0.1,0.1-0.1,0.1-0.1,0.1c0,0.1-0.1,0.1-0.1,0.2c0,0.1,0,0.1,0.1,0.2
		c0,0.1,0.1,0.1,0.1,0.1c0.1,0.1,0.1,0.1,0.1,0.1C82.5,74.6,82.6,74.7,82.6,74.7z M82.7,73.9c0.1,0,0.1,0,0.2,0.1
		C83,74,83,74,83,74.1c0,0.1,0,0.1-0.1,0.1c0,0-0.1,0.1-0.1,0.1l0.2,0.2h-0.1l-0.2-0.2h-0.1v0.2h-0.1v-0.6L82.7,73.9L82.7,73.9z
		 M82.5,74v0.1h0.1h0.1c0,0,0,0,0-0.1V74h-0.1H82.5z M81.8,53.2v-0.8h0.3v-0.1h-0.8v0.1h0.3v0.8H81.8z M83.3,53.2v-0.9H83L82.8,53
		l-0.3-0.7h-0.3v0.9h0.2v-0.7l0.3,0.6h0.2l0.3-0.6v0.7H83.3z M43,57.9c0.2,0.1,0.4,0.3,0.6,0.5c-3.8,2.5-8.4,4-13.3,4
		c-13.3,0-24-10.8-24-24s10.8-24,24-24c4.9,0,9.5,1.5,13.3,4c-0.2,0.1-0.4,0.3-0.6,0.5c-5.7,4.9-8.9,12-8.9,19.6S37.3,52.9,43,57.9z
		 M60,14.2c-4.9,0-9.5,1.5-13.3,4c0.2,0.1,0.4,0.3,0.6,0.5c5.7,4.9,8.9,12,8.9,19.6c0,7.5-3.3,14.6-8.9,19.6
		c-0.2,0.1-0.4,0.3-0.6,0.5c3.8,2.5,8.4,4,13.3,4c13.3,0,24-10.8,24-24C84,25.1,73.3,14.2,60,14.2z M45.2,19.4
		c-0.3,0.3-0.6,0.5-0.9,0.7c-5.1,4.4-8.3,10.9-8.3,18.2c0,7.2,3.2,13.8,8.3,18.2c0.3,0.3,0.6,0.5,0.9,0.7c0.3-0.3,0.6-0.5,0.9-0.7
		c5.1-4.4,8.3-10.9,8.3-18.2c0-7.2-3.2-13.8-8.3-18.2C45.8,19.9,45.5,19.6,45.2,19.4"/>
</g>
</svg>
