<?xml version="1.0" encoding="utf-8"?>
<!-- Generator: Adobe Illustrator 25.1.0, SVG Export Plug-In . SVG Version: 6.00 Build 0)  -->
<svg version="1.1" id="Layer_1" xmlns="http://www.w3.org/2000/svg" xmlns:xlink="http://www.w3.org/1999/xlink" x="0px" y="0px"
	 viewBox="0 0 792 612" style="enable-background:new 0 0 792 612;" xml:space="preserve">
<style type="text/css">
	.st0{fill:#FFFFFF;}
</style>
<g>
	<path class="st0" d="M358.9,351.1v-6c0-2.3-1.4-3.8-3.8-3.8c-1.2,0-2.5,0.4-3.4,1.7c-0.7-1.1-1.7-1.7-3.2-1.7c-1,0-2,0.3-2.8,1.4
		v-1.2h-2.1v9.6h2.1v-5.3c0-1.7,0.9-2.5,2.3-2.5c1.4,0,2.1,0.9,2.1,2.5v5.3h2.1v-5.3c0-1.7,1-2.5,2.3-2.5c1.4,0,2.1,0.9,2.1,2.5v5.3
		H358.9z M390,341.5h-3.4v-2.9h-2.1v2.9h-1.9v1.9h1.9v4.4c0,2.2,0.9,3.5,3.3,3.5c0.9,0,1.9-0.3,2.6-0.7l-0.6-1.8
		c-0.6,0.4-1.3,0.5-1.8,0.5c-1,0-1.4-0.6-1.4-1.6v-4.3h3.4V341.5z M407.8,341.3c-1.2,0-2,0.6-2.5,1.4v-1.2h-2.1v9.6h2.1v-5.4
		c0-1.6,0.7-2.5,2-2.5c0.4,0,0.9,0.1,1.3,0.2l0.6-2C408.8,341.3,408.2,341.3,407.8,341.3L407.8,341.3z M380.9,342.3
		c-1-0.7-2.4-1-3.9-1c-2.4,0-4,1.2-4,3.1c0,1.6,1.2,2.5,3.3,2.8l1,0.1c1.1,0.2,1.7,0.5,1.7,1c0,0.7-0.8,1.2-2.2,1.2
		c-1.4,0-2.5-0.5-3.2-1l-1,1.6c1.1,0.8,2.6,1.2,4.1,1.2c2.8,0,4.4-1.3,4.4-3.1c0-1.7-1.3-2.6-3.3-2.9l-1-0.1
		c-0.9-0.1-1.6-0.3-1.6-0.9c0-0.7,0.7-1.1,1.8-1.1c1.2,0,2.4,0.5,3,0.8L380.9,342.3z M436.7,341.3c-1.2,0-2,0.6-2.5,1.4v-1.2h-2.1
		v9.6h2.1v-5.4c0-1.6,0.7-2.5,2-2.5c0.4,0,0.9,0.1,1.3,0.2l0.6-2C437.7,341.3,437.1,341.3,436.7,341.3L436.7,341.3z M409.9,346.3
		c0,2.9,2,5,5.1,5c1.4,0,2.4-0.3,3.4-1.1l-1-1.7c-0.8,0.6-1.6,0.9-2.5,0.9c-1.7,0-2.9-1.2-2.9-3.1c0-1.8,1.2-3,2.9-3.1
		c0.9,0,1.7,0.3,2.5,0.9l1-1.7c-1-0.8-2-1.1-3.4-1.1C411.9,341.3,409.9,343.4,409.9,346.3L409.9,346.3z M429.3,346.3v-4.8h-2.1v1.2
		c-0.7-0.9-1.7-1.4-3-1.4c-2.7,0-4.8,2.1-4.8,5c0,2.9,2.1,5,4.8,5c1.4,0,2.4-0.5,3-1.4v1.2h2.1V346.3z M421.6,346.3
		c0-1.7,1.1-3.1,2.9-3.1c1.7,0,2.9,1.3,2.9,3.1c0,1.7-1.2,3.1-2.9,3.1C422.7,349.3,421.6,348,421.6,346.3L421.6,346.3z M396.5,341.3
		c-2.8,0-4.8,2-4.8,5c0,3,2,5,4.9,5c1.4,0,2.8-0.4,3.9-1.3l-1-1.5c-0.8,0.6-1.8,1-2.8,1c-1.3,0-2.6-0.6-2.9-2.3h7.1
		c0-0.3,0-0.5,0-0.8C401,343.3,399.2,341.3,396.5,341.3L396.5,341.3z M396.5,343.1c1.3,0,2.2,0.8,2.4,2.3h-5
		C394.1,344.1,395,343.1,396.5,343.1L396.5,343.1z M448.6,346.3v-8.6h-2.1v5c-0.7-0.9-1.7-1.4-3-1.4c-2.7,0-4.8,2.1-4.8,5
		c0,2.9,2.1,5,4.8,5c1.4,0,2.4-0.5,3-1.4v1.2h2.1V346.3z M440.9,346.3c0-1.7,1.1-3.1,2.9-3.1c1.7,0,2.9,1.3,2.9,3.1
		c0,1.7-1.2,3.1-2.9,3.1C442,349.3,440.9,348,440.9,346.3L440.9,346.3z M370.7,346.3v-4.8h-2.1v1.2c-0.7-0.9-1.7-1.4-3-1.4
		c-2.7,0-4.8,2.1-4.8,5c0,2.9,2.1,5,4.8,5c1.4,0,2.4-0.5,3-1.4v1.2h2.1V346.3z M362.9,346.3c0-1.7,1.1-3.1,2.9-3.1
		c1.7,0,2.9,1.3,2.9,3.1c0,1.7-1.2,3.1-2.9,3.1C364,349.3,362.9,348,362.9,346.3z M452.1,349.7c0.1,0,0.3,0,0.4,0.1
		c0.1,0,0.2,0.1,0.3,0.2c0.1,0.1,0.2,0.2,0.2,0.3c0.1,0.1,0.1,0.2,0.1,0.4c0,0.1,0,0.3-0.1,0.4c-0.1,0.1-0.1,0.2-0.2,0.3
		c-0.1,0.1-0.2,0.2-0.3,0.2c-0.1,0.1-0.2,0.1-0.4,0.1c-0.1,0-0.3,0-0.4-0.1c-0.1-0.1-0.2-0.1-0.3-0.2c-0.1-0.1-0.2-0.2-0.2-0.3
		c-0.1-0.1-0.1-0.2-0.1-0.4c0-0.1,0-0.3,0.1-0.4c0.1-0.1,0.1-0.2,0.2-0.3c0.1-0.1,0.2-0.2,0.3-0.2
		C451.8,349.7,452,349.7,452.1,349.7z M452.1,351.4c0.1,0,0.2,0,0.3-0.1c0.1,0,0.2-0.1,0.2-0.2c0.1-0.1,0.1-0.1,0.2-0.2
		c0-0.1,0.1-0.2,0.1-0.3c0-0.1,0-0.2-0.1-0.3c0-0.1-0.1-0.2-0.2-0.2c-0.1-0.1-0.1-0.1-0.2-0.2c-0.1,0-0.2-0.1-0.3-0.1
		c-0.1,0-0.2,0-0.3,0.1c-0.1,0-0.2,0.1-0.2,0.2c-0.1,0.1-0.1,0.1-0.2,0.2c0,0.1-0.1,0.2-0.1,0.3c0,0.1,0,0.2,0.1,0.3
		c0,0.1,0.1,0.2,0.2,0.2c0.1,0.1,0.1,0.1,0.2,0.2C451.9,351.3,452,351.4,452.1,351.4z M452.2,350.2c0.1,0,0.2,0,0.3,0.1
		c0.1,0.1,0.1,0.1,0.1,0.2c0,0.1,0,0.1-0.1,0.2c0,0-0.1,0.1-0.2,0.1l0.3,0.3h-0.2l-0.3-0.3h-0.1v0.3h-0.2v-0.9H452.2z M451.9,350.3
		v0.2h0.2c0,0,0.1,0,0.1,0c0,0,0,0,0-0.1c0,0,0-0.1,0-0.1c0,0-0.1,0-0.1,0H451.9z M450.8,319.3v-1.2h0.5v-0.2h-1.2v0.2h0.5v1.2
		H450.8z M453.1,319.3v-1.4h-0.4l-0.4,1l-0.4-1h-0.4v1.4h0.3v-1.1l0.4,0.9h0.3l0.4-0.9v1.1H453.1z M392.8,326.2
		c0.3,0.2,0.6,0.5,0.9,0.7c-5.7,3.8-12.6,6-19.9,6c-19.9,0-36-16.1-36-36s16.1-36,36-36c7.4,0,14.2,2.2,19.9,6
		c-0.3,0.2-0.6,0.5-0.9,0.7c-8.5,7.4-13.3,18-13.3,29.3C379.5,308.2,384.3,318.8,392.8,326.2z M418.2,260.9c-7.4,0-14.2,2.2-19.9,6
		c0.3,0.2,0.6,0.5,0.9,0.7c8.5,7.4,13.3,18,13.3,29.3c0,11.2-4.9,21.9-13.3,29.3c-0.3,0.2-0.6,0.5-0.9,0.7c5.7,3.8,12.6,6,19.9,6
		c19.9,0,36-16.1,36-36C454.2,277.1,438.1,260.9,418.2,260.9z M396,268.7c-0.5,0.4-0.9,0.7-1.4,1.1c-7.6,6.6-12.4,16.3-12.4,27.2
		c0,10.8,4.8,20.6,12.4,27.2c0.4,0.4,0.9,0.8,1.4,1.1c0.5-0.4,0.9-0.7,1.4-1.1c7.6-6.6,12.4-16.3,12.4-27.2
		c0-10.8-4.8-20.6-12.4-27.2C396.9,269.4,396.5,269,396,268.7"/>
</g>
</svg>
