<?xml version="1.0" encoding="utf-8"?>
<!-- Generator: Adobe Illustrator 25.1.0, SVG Export Plug-In . SVG Version: 6.00 Build 0)  -->
<svg version="1.1" id="Layer_1" xmlns="http://www.w3.org/2000/svg" xmlns:xlink="http://www.w3.org/1999/xlink" x="0px" y="0px"
	 viewBox="0 0 612 226.9" style="enable-background:new 0 0 612 226.9;" xml:space="preserve">
<style type="text/css">
	.st0{fill:#FFFFFF;}
</style>
<g>
	<path class="st0" d="M590.2,190.4c-13.5,0-27.1,0-40.8,0c-1.5-7.2-3.1-14.2-4.4-21.3c-0.5-2.9-1.5-4.1-4.7-4
		c-16.4,0.2-32.7,0.2-49.1,0c-2.5,0-3.5,0.8-4.2,3.1c-2.3,6.7-4.7,13.4-7.2,20.1c-0.3,0.9-1.5,2.1-2.3,2.1
		c-14.7,0.1-29.5,0.1-44.7,0.1c2.8-6.7,5.4-13,8-19.4c19-45.4,38-90.7,57.1-136.1c4.1-9.8,10.3-13.9,20.9-13.9c11.8,0,23.7,0,35.8,0
		c1.2,5.5,2.4,11,3.5,16.4c9.4,44.8,18.7,89.7,28.1,134.5c1.2,5.7,2.6,11.4,3.9,17.2C590.2,189.6,590.2,190,590.2,190.4z
		 M536.8,130.2c-4.3-20.8-8.6-41.4-12.9-62c-0.2,0-0.4-0.1-0.5-0.1c-7.5,20.6-14.9,41.2-22.5,62.1
		C513,130.2,524.7,130.2,536.8,130.2z"/>
	<path class="st0" d="M412.5,18.1c5.4,1,10.8,1.8,16.1,3.1c4.9,1.1,9.6,2.7,14.8,4.2c-2.6,12.2-5.1,24.1-7.6,35.7
		c-6.8-2-13.3-4.3-20-5.8c-9.2-2-18.6-2.8-27.7-0.2c-3.7,1-7.5,3-10.4,5.5c-5,4.3-5.1,10.5-0.3,15c3.3,3.1,7.2,5.7,11.2,8
		c8.9,5.4,18.3,10,27,15.8c10.2,6.8,17.7,16,19.2,28.6c2.8,22.2-5.4,39.7-24.1,52.1c-11.7,7.8-25,11.3-38.8,12.5
		c-19.3,1.8-38.2-0.4-56.7-6.4c-1.2-0.4-2.4-0.9-3.6-1.4c-0.4-0.1-0.7-0.4-1.2-0.8c2.6-12.2,5.2-24.4,7.9-37c3.1,1.4,6.1,2.7,9.1,4
		c14.4,5.8,29.3,8.5,44.7,5.6c4-0.8,8.1-2.5,11.5-4.8c7.4-4.9,8.1-14.2,1.4-20.1c-4.4-3.8-9.7-6.6-14.8-9.7
		c-7.9-4.8-16.2-8.9-23.7-14.2c-9.5-6.9-16.4-16-17.8-28.2c-2-18.2,4.8-33,18.8-44.5c12.2-10,26.6-14.5,42-16.3
		c0.9-0.1,1.7-0.4,2.5-0.6C398.8,18.1,405.6,18.1,412.5,18.1z"/>
	<path class="st0" d="M253.8,21.2c-2.3,5.5-4.5,10.8-6.7,16c-21,50.1-42,100.2-62.9,150.3c-1,2.4-2.2,3-4.6,3
		c-13.3-0.1-26.5-0.2-39.8,0c-2.8,0-3.7-0.9-4.4-3.5c-11.2-43.8-22.7-87.5-33.8-131.3c-2-8-6.1-13.5-13.8-16.9
		c-12.3-5.4-25-9.2-38-12.3c-0.6-0.1-1.1-0.3-1.7-0.4c0.1-5.1,0.1-5.1,4.9-5.1c23.2,0,46.4,0,69.6,0c11,0,18.9,6.4,21,17.3
		c5.9,30.8,11.6,61.7,17.5,92.5c0.3,1.3,0.5,2.7,0.9,4.6c0.6-1.1,1-1.8,1.3-2.5c14.4-36.4,28.8-72.9,43.1-109.3
		c0.8-2,1.7-2.7,3.9-2.6c13.5,0.1,26.9,0.1,40.4,0.1C251.7,21.1,252.6,21.2,253.8,21.2z"/>
	<path class="st0" d="M236.3,190.5c12.1-56.6,24.1-112.8,36.2-169.2c14.7,0,29.2,0,43.9,0c-1.8,8.6-3.6,17-5.4,25.4
		c-10,46.6-19.9,93.1-29.8,139.7c-0.7,3.2-1.8,4.3-5.2,4.2c-12-0.2-24.1-0.1-36.1-0.1C238.8,190.5,237.7,190.5,236.3,190.5z"/>
</g>
</svg>
