<?xml version="1.0" encoding="utf-8"?>
<!-- Generator: Adobe Illustrator 25.1.0, SVG Export Plug-In . SVG Version: 6.00 Build 0)  -->
<svg version="1.1" id="Layer_1" xmlns="http://www.w3.org/2000/svg" xmlns:xlink="http://www.w3.org/1999/xlink" x="0px" y="0px"
	 viewBox="0 0 89.8 90.1" style="enable-background:new 0 0 89.8 90.1;" xml:space="preserve">
<style type="text/css">
	.st0{fill-rule:evenodd;clip-rule:evenodd;fill:#FFFFFF;}
	.st1{fill:#FFFFFF;}
</style>
<g>
	<path class="st1" d="M86.3,58c-2.1,0-4.1,0-6.2,0c-0.2-1.1-0.5-2.2-0.7-3.3c-0.1-0.4-0.2-0.6-0.7-0.6c-2.5,0-5,0-7.5,0
		c-0.4,0-0.5,0.1-0.6,0.5c-0.4,1-0.7,2-1.1,3.1c0,0.1-0.2,0.3-0.4,0.3c-2.2,0-4.5,0-6.8,0c0.4-1,0.8-2,1.2-3
		c2.9-6.9,5.8-13.8,8.7-20.8c0.6-1.5,1.6-2.1,3.2-2.1c1.8,0,3.6,0,5.5,0c0.2,0.8,0.4,1.7,0.5,2.5c1.4,6.8,2.9,13.7,4.3,20.5
		c0.2,0.9,0.4,1.7,0.6,2.6C86.3,57.9,86.3,57.9,86.3,58z M78.1,48.8c-0.7-3.2-1.3-6.3-2-9.5c0,0-0.1,0-0.1,0
		c-1.1,3.1-2.3,6.3-3.4,9.5C74.5,48.8,76.3,48.8,78.1,48.8z"/>
	<path class="st1" d="M59.1,31.7c0.8,0.2,1.6,0.3,2.5,0.5c0.7,0.2,1.5,0.4,2.3,0.6c-0.4,1.9-0.8,3.7-1.2,5.4c-1-0.3-2-0.7-3.1-0.9
		c-1.4-0.3-2.8-0.4-4.2,0c-0.6,0.2-1.1,0.5-1.6,0.8c-0.8,0.7-0.8,1.6,0,2.3c0.5,0.5,1.1,0.9,1.7,1.2c1.4,0.8,2.8,1.5,4.1,2.4
		c1.6,1,2.7,2.4,2.9,4.4c0.4,3.4-0.8,6.1-3.7,8c-1.8,1.2-3.8,1.7-5.9,1.9c-2.9,0.3-5.8-0.1-8.7-1c-0.2-0.1-0.4-0.1-0.5-0.2
		c-0.1,0-0.1-0.1-0.2-0.1c0.4-1.9,0.8-3.7,1.2-5.6c0.5,0.2,0.9,0.4,1.4,0.6c2.2,0.9,4.5,1.3,6.8,0.9c0.6-0.1,1.2-0.4,1.8-0.7
		c1.1-0.7,1.2-2.2,0.2-3.1c-0.7-0.6-1.5-1-2.3-1.5c-1.2-0.7-2.5-1.4-3.6-2.2c-1.5-1.1-2.5-2.4-2.7-4.3c-0.3-2.8,0.7-5,2.9-6.8
		c1.9-1.5,4.1-2.2,6.4-2.5c0.1,0,0.3-0.1,0.4-0.1C57,31.7,58.1,31.7,59.1,31.7z"/>
	<path class="st1" d="M34.9,32.2c-0.4,0.8-0.7,1.6-1,2.4c-3.2,7.6-6.4,15.3-9.6,22.9c-0.2,0.4-0.3,0.5-0.7,0.5c-2,0-4,0-6.1,0
		c-0.4,0-0.6-0.1-0.7-0.5c-1.7-6.7-3.5-13.4-5.2-20c-0.3-1.2-0.9-2.1-2.1-2.6C7.7,34,5.8,33.5,3.8,33c-0.1,0-0.2,0-0.3-0.1
		c0-0.8,0-0.8,0.7-0.8c3.5,0,7.1,0,10.6,0c1.7,0,2.9,1,3.2,2.6c0.9,4.7,1.8,9.4,2.7,14.1c0,0.2,0.1,0.4,0.1,0.7
		c0.1-0.2,0.2-0.3,0.2-0.4c2.2-5.6,4.4-11.1,6.6-16.7c0.1-0.3,0.3-0.4,0.6-0.4c2.1,0,4.1,0,6.2,0C34.6,32.2,34.7,32.2,34.9,32.2z"/>
	<path class="st1" d="M32.2,58c1.8-8.6,3.7-17.2,5.5-25.8c2.2,0,4.5,0,6.7,0c-0.3,1.3-0.5,2.6-0.8,3.9c-1.5,7.1-3,14.2-4.5,21.3
		c-0.1,0.5-0.3,0.7-0.8,0.6c-1.8,0-3.7,0-5.5,0C32.6,58,32.4,58,32.2,58z"/>
</g>
</svg>
